<svg class="nav-logo-svg" viewBox="0 0 375 375" xmlns="http://www.w3.org/2000/svg"><defs><style>.st0{fill:#fff}</style></defs><g><path class="st0" d="M99.309021,225.8874512c0,1.7666016-1.4018555,2.7890625-4.0888672,2.7890625h-5.2861328v-10.2216797h4.9941406c2.5556641,0,3.8696289,1.0654297,3.8696289,2.6572266,0,1.0224609-.5253906,1.8105469-1.3579102,2.2490234,1.1391602.3652344,1.8691406,1.2412109,1.8691406,2.5263672ZM92.2850952,220.236084v2.4091797h2.3510742c1.1538086,0,1.7817383-.4082031,1.7817383-1.2119141,0-.8027344-.6279297-1.1972656-1.7817383-1.1972656h-2.3510742ZM96.9286499,225.6394043c0-.8613281-.6567383-1.2705078-1.8837891-1.2705078h-2.7597656v2.5263672h2.7597656c1.2270508,0,1.8837891-.3798828,1.8837891-1.2558594Z"/><path class="st0" d="M116.1713257,226.7780762v1.8984375h-7.9145508v-10.2216797h7.7250977v1.8984375h-5.3740234v2.2197266h4.7460938v1.8398438h-4.7460938v2.3652344h5.5634766Z"/><path class="st0" d="M130.012146,225.0554199v3.6210938h-2.3657227v-3.6503906l-3.9575195-6.5712891h2.5117188l2.730957,4.5410156,2.7304688-4.5410156h2.3217773l-3.9716797,6.6005859Z"/><path class="st0" d="M141.4862671,223.5651855c0-3.0371094,2.3657227-5.2861328,5.5927734-5.2861328,3.2128906,0,5.5932617,2.234375,5.5932617,5.2861328,0,3.0527344-2.3803711,5.2861328-5.5932617,5.2861328-3.2270508,0-5.5927734-2.2480469-5.5927734-5.2861328ZM150.2772827,223.5651855c0-1.9414062-1.3725586-3.2705078-3.1982422-3.2705078-1.8251953,0-3.1977539,1.3291016-3.1977539,3.2705078,0,1.9423828,1.3725586,3.2714844,3.1977539,3.2714844,1.8256836,0,3.1982422-1.3291016,3.1982422-3.2714844Z"/><path class="st0" d="M170.8339233,218.454834v10.2216797h-1.9423828l-5.0957031-6.2060547v6.2060547h-2.3369141v-10.2216797h1.9570312l5.0820312,6.2060547v-6.2060547h2.3359375Z"/><path class="st0" d="M180.4100952,218.454834h4.6435547c3.34375,0,5.6367188,2.0146484,5.6367188,5.1103516s-2.2929688,5.1113281-5.6367188,5.1113281h-4.6435547v-10.2216797ZM184.937439,226.7341309c2.0292969,0,3.3583984-1.2119141,3.3583984-3.1689453,0-1.9560547-1.3291016-3.1679688-3.3583984-3.1679688h-2.1611328v6.3369141h2.1611328Z"/><path class="st0" d="M209.8143921,227.6687012l.8027344-1.78125c.8613281.6279297,2.1464844,1.0664062,3.3730469,1.0664062,1.4023438,0,1.9716797-.4677734,1.9716797-1.0957031,0-1.9130859-5.9433594-.5986328-5.9433594-4.3955078,0-1.7373047,1.4023438-3.1835938,4.3076172-3.1835938,1.2851562,0,2.5996094.3066406,3.5488281.9052734l-.7304688,1.796875c-.9492188-.5410156-1.9277344-.8037109-2.8330078-.8037109-1.4013672,0-1.9423828.5263672-1.9423828,1.1689453,0,1.8828125,5.9433594.5839844,5.9433594,4.3369141,0,1.7080078-1.4160156,3.1679688-4.3369141,3.1679688-1.6201172,0-3.2558594-.4814453-4.1611328-1.1826172Z"/><path class="st0" d="M229.0565796,220.3825684h-3.2705078v-1.9277344h8.9072266v1.9277344h-3.2705078v8.2939453h-2.3662109v-8.2939453Z"/><path class="st0" d="M249.7763062,226.486084h-4.7460938l-.9052734,2.1904297h-2.4248047l4.5566406-10.2216797h2.3359375l4.5712891,10.2216797h-2.4824219l-.9052734-2.1904297ZM249.031189,224.6901855l-1.6210938-3.9140625-1.6210938,3.9140625h3.2421875Z"/><path class="st0" d="M266.2440796,225.0554199v3.6210938h-2.3652344v-3.6503906l-3.9570312-6.5712891h2.5117188l2.7304688,4.5410156,2.7304688-4.5410156h2.3222656l-3.9726562,6.6005859Z"/><path class="st0" d="M277.3388062,227.6687012l.8027344-1.78125c.8613281.6279297,2.1464844,1.0664062,3.3730469,1.0664062,1.4023438,0,1.9716797-.4677734,1.9716797-1.0957031,0-1.9130859-5.9433594-.5986328-5.9433594-4.3955078,0-1.7373047,1.4023438-3.1835938,4.3076172-3.1835938,1.2851562,0,2.5996094.3066406,3.5488281.9052734l-.7304688,1.796875c-.9492188-.5410156-1.9277344-.8037109-2.8330078-.8037109-1.4013672,0-1.9423828.5263672-1.9423828,1.1689453,0,1.8828125,5.9433594.5839844,5.9433594,4.3369141,0,1.7080078-1.4160156,3.1679688-4.3369141,3.1679688-1.6201172,0-3.2558594-.4814453-4.1611328-1.1826172Z"/></g><g><path class="st0" d="M117.9813843,159.130127c-8.8173828,0-15.9907227,7.1733398-15.9907227,15.9907227s7.1733398,15.9902344,15.9907227,15.9902344,15.9907227-7.1728516,15.9907227-15.9902344-7.1733398-15.9907227-15.9907227-15.9907227ZM117.9813843,185.1115723c-5.5087891,0-9.9907227-4.4819336-9.9907227-9.9907227s4.4819336-9.9907227,9.9907227-9.9907227,9.9907227,4.4819336,9.9907227,9.9907227-4.4819336,9.9907227-9.9907227,9.9907227Z"/><path class="st0" d="M200.2636108,159.130127c-8.6865234,0-15.7543945,7.1733398-15.7543945,15.9907227s7.0678711,15.9902344,15.7543945,15.9902344c3.6962891,0,7.2890625-1.3251953,10.1162109-3.730957,1.2617188-1.0737305,1.4140625-2.9672852.3398438-4.2290039-1.0732422-1.262207-2.9667969-1.4140625-4.2285156-.340332-1.7431641,1.4838867-3.9550781,2.3007812-6.2275391,2.3007812-5.3789062,0-9.7548828-4.4819336-9.7548828-9.9907227s4.3759766-9.9907227,9.7548828-9.9907227c4.3583984,0,8.0585938,2.9428711,9.3056641,6.9907227h-7.0693359c-1.6572266,0-3,1.0327148-3,2.6894531s1.3427734,2.644043,3,2.644043h10.5185547c1.6572266,0,3-1.3432617,3-3,0-8.8173828-7.0673828-15.3242188-15.7548828-15.3242188Z"/><path class="st0" d="M338.7080688,159.130127c-8.6865234,0-15.7543945,7.1733398-15.7543945,15.9907227s7.0678711,15.9902344,15.7543945,15.9902344c3.6962891,0,7.2890625-1.3251953,10.1162109-3.730957,1.2617188-1.0737305,1.4140625-2.9672852.3398438-4.2290039-1.0732422-1.262207-2.9667969-1.4140625-4.2285156-.340332-1.7431641,1.4838867-3.9550781,2.3007812-6.2275391,2.3007812-5.3789062,0-9.7548828-4.4819336-9.7548828-9.9907227s4.3759766-9.9907227,9.7548828-9.9907227c4.3583984,0,8.0585938,2.9428711,9.3056641,6.9907227h-7.0693359c-1.6572266,0-3,1.0327148-3,2.6894531s1.3427734,2.644043,3,2.644043h10.5185547c1.6572266,0,3-1.3432617,3-3,0-8.8173828-7.0673828-15.3242188-15.7548828-15.3242188Z"/><path class="st0" d="M159.3114624,159.130127c-8.8173828,0-15.9907227,7.1733398-15.9907227,15.9907227v27.1855469c0,1.6572266,1.3432617,3,3,3s3-1.3427734,3-3v-14.7201538c2.7398071,2.2001343,6.2114868,3.5248413,9.9907227,3.5248413,8.8173828,0,15.9907227-7.1728516,15.9907227-15.9902344s-7.1733398-15.9907227-15.9907227-15.9907227ZM159.3114624,185.1115723c-5.5087891,0-9.9907227-4.4819336-9.9907227-9.9907227s4.4819336-9.9907227,9.9907227-9.9907227,9.9907227,4.4819336,9.9907227,9.9907227-4.4819336,9.9907227-9.9907227,9.9907227Z"/><path class="st0" d="M96.277771,159.5285645h-2.9443359c-6.8925781,0-12.5,5.6074219-12.5,12.5v15.6665039c0,1.6572266,1.3432617,3,3,3s3-1.3427734,3-3v-15.6665039c0-3.5839844,2.9160156-6.5,6.5-6.5h2.9443359c1.6567383,0,3-1.3432617,3-3s-1.3432617-3-3-3Z"/><path class="st0" d="M241.1483765,159.5285645h-2.9443359c-6.8925781,0-12.5,5.6074219-12.5,12.5v15.6665039c0,1.6572266,1.3427734,3,3,3s3-1.3427734,3-3v-15.6665039c0-3.5839844,2.9160156-6.5,6.5-6.5h2.9443359c1.6572266,0,3-1.3432617,3-3s-1.3427734-3-3-3Z"/><path class="st0" d="M265.0370483,159.5285645h-6.3886719v-7.722168c0-1.6567383-1.3427734-3-3-3s-3,1.3432617-3,3v24.4257812c0,10.1044922,6.8037109,13.6328125,10.4013672,14.0869141.1279297.0166016.2548828.0244141.3798828.0244141,1.4892578,0,2.78125-1.1083984,2.9726562-2.625.2070312-1.6435547-.9570312-3.1445312-2.6005859-3.3520508-.2109375-.0263672-5.1533203-.7353516-5.1533203-8.1342773v-10.7036133h6.3886719c1.6572266,0,3-1.3432617,3-3s-1.3427734-3-3-3Z"/><path class="st0" d="M278.1669312,159.8063965c-1.6572266,0-3,1.3432617-3,3v24.5366211c0,1.6567383,1.3427734,3.0004883,3,3.0004883s3-1.34375,3-3.0004883v-24.5366211c0-1.6567383-1.3427734-3-3-3Z"/><path class="st0" d="M278.1668091,148.102478c-2.0455322,0-3.7037354,1.6582031-3.7037354,3.7036743,0,2.0455322,1.6582031,3.7037354,3.7037354,3.7037354,2.0454712,0,3.7036743-1.6582031,3.7036743-3.7037354,0-2.0454712-1.6582031-3.7036743-3.7036743-3.7036743Z"/><path class="st0" d="M312.7597046,184.6950684h-14.0449219l15.5019531-17.8989258c1.0800781-1.246582,1.3349609-3.0209961.6494141-4.5209961-.6845703-1.4995117-2.1933594-2.46875-3.8417969-2.46875h-16.1542969c-1.6572266,0-3,1.3432617-3,3s1.3427734,3,3,3h12.2666016l-15.5029297,17.8989258c-1.0791016,1.246582-1.3330078,3.0214844-.6484375,4.5209961.6855469,1.5,2.1943359,2.46875,3.8427734,2.46875h17.9316406c1.6572266,0,3-1.3427734,3-3,0-1.6567383-1.3427734-3-3-3Z"/></g><g><path class="st0" d="M59.3798218,146.1486816H20.5370483c0,.9440918.142395,1.8540649.3988037,2.7148438h37.616333c6.7158203,0,12.1791992,5.4638672,12.1791992,12.1796875s-5.4633789,12.1796875-12.1791992,12.1796875h-15.1816406v2.2407227h15.5843506c7.8832397,0,14.6759644-6.0459595,15.0639648-13.9196167.4146729-8.4162598-6.3125-15.3953247-14.6390381-15.3953247Z"/><path class="st0" d="M42.0093994,178.5839844v-6.861084h16.5427856c5.8886719,0,10.6791992-4.7910156,10.6791992-10.6796875s-4.7905273-10.6796875-10.6791992-10.6796875H21.5326538c1.5541382,3.1292114,4.7734985,5.2851562,8.5043945,5.2851562h29.3427734c3.013855,0,5.4320679,2.598999,5.132019,5.6732178-.2614746,2.6790771-2.6698608,4.6417236-5.3616943,4.6417236h-17.723938c-3.0279541,0-5.5834961.6759033-5.5834961.6759033v45.916626l6.166687-7.222168v-6.666687l-2.833374-1.666687,2.833374-2.111084v-2.194458l-3.083374-.722229v-3.722229l3.083374-1.194458v-2.833313l-3.277771-1.361084v-2.666687l3.277771-1.611084Z"/><path class="st0" d="M30.6482544,176.2783813v32.8425903l2.861145,3.4351807v-43.333313s-2.861145,1.083313-2.861145,7.055542Z"/></g></svg>
